# xmcd CD database file
#
# Track frame offsets:
#	150
#	14355
#	23837
#	35342
#	45305
#	55580
#	65552
#	77784
#	99232
#	113987
#	127134
#	139337
#	152090
#	167804
#	180339
#	193424
#	206116
#	218574
#	230679
#	244581
#	257949
#	275199
#	290784
#	305059
#	317456
#
# Disc length: 4441 seconds
#
# Revision: 1
# Processed by: cddbd v1.5.2PL0 Copyright (c) Steve Scherf et al.
# Submitted via: CDex 1.77
#
DISCID=75115719
DTITLE=Nat King Cole - KIng Of Songs Classic Disc 2
DYEAR=2003
DGENRE=Jazz
TTITLE0=When I Fall In Love
TTITLE1=Tres Palabras
TTITLE2=Nadie Me Ama
TTITLE3=Piel Canela
TTITLE4=Ay. Cosita Linda
TTITLE5=Aquellos Ojos Verdes
TTITLE6=Love Is Many Spendored Thing
TTITLE7=A Nightingal Sang In Berkely Square
TTITLE8=Stardust
TTITLE9=Smile
TTITLE10=Autume Leaves
TTITLE11=Love Is Here To Stay
TTITLE12=Unforgettable
TTITLE13=Let There Be Love
TTITLE14=There goes My Heart
TTITLE15=Let's Fall In Love
TTITLE16=Love Letters
TTITLE17=Walk In My Baby Back Home
TTITLE18=Blue Gardenio
TTITLE19=Tenderly
TTITLE20=The Very Thought Of You
TTITLE21=Too Much
TTITLE22=Dear Lonely Hearts
TTITLE23=When You're Smiling
TTITLE24=The More I See You
EXTD=YEAR: 2003
EXTT0=
EXTT1=
EXTT2=
EXTT3=
EXTT4=
EXTT5=
EXTT6=
EXTT7=
EXTT8=
EXTT9=
EXTT10=
EXTT11=
EXTT12=
EXTT13=
EXTT14=
EXTT15=
EXTT16=
EXTT17=
EXTT18=
EXTT19=
EXTT20=
EXTT21=
EXTT22=
EXTT23=
EXTT24=
PLAYORDER=
